<?xml version="1.0" encoding="UTF-8"?><svg xmlns="http://www.w3.org/2000/svg" xmlns:xlink="http://www.w3.org/1999/xlink" height="375" version="1.2" viewBox="0 0 375 375" width="375"><defs><symbol id="a" overflow="visible"><path d="M 25.0625 0.71875 C 20.40625 0.71875 16.164062 -0.332031 12.34375 -2.4375 C 8.53125 -4.550781 5.90625 -7.316406 4.46875 -10.734375 C 4.226562 -11.304688 4.109375 -11.785156 4.109375 -12.171875 C 4.109375 -12.890625 4.367188 -13.523438 4.890625 -14.078125 C 5.421875 -14.628906 6.144531 -15 7.0625 -15.1875 C 7.195312 -15.238281 7.4375 -15.265625 7.78125 -15.265625 C 8.539062 -15.265625 9.269531 -15.035156 9.96875 -14.578125 C 10.664062 -14.117188 11.179688 -13.507812 11.515625 -12.75 C 12.378906 -10.875 14.082031 -9.285156 16.625 -7.984375 C 19.175781 -6.691406 21.988281 -6.046875 25.0625 -6.046875 C 28.65625 -6.046875 31.695312 -6.875 34.1875 -8.53125 C 36.6875 -10.1875 37.9375 -12.457031 37.9375 -15.34375 C 37.9375 -18.070312 36.878906 -20.40625 34.765625 -22.34375 C 32.660156 -24.289062 29.445312 -25.484375 25.125 -25.921875 C 19.175781 -26.492188 14.492188 -28.234375 11.078125 -31.140625 C 7.671875 -34.046875 5.96875 -37.679688 5.96875 -42.046875 C 5.96875 -45.117188 6.84375 -47.769531 8.59375 -50 C 10.351562 -52.238281 12.753906 -53.941406 15.796875 -55.109375 C 18.847656 -56.285156 22.269531 -56.875 26.0625 -56.875 C 30.1875 -56.875 33.664062 -56.035156 36.5 -54.359375 C 39.332031 -52.679688 41.734375 -50.28125 43.703125 -47.15625 C 44.273438 -46.25 44.5625 -45.382812 44.5625 -44.5625 C 44.5625 -43.507812 44.082031 -42.644531 43.125 -41.96875 C 42.601562 -41.632812 41.976562 -41.46875 41.25 -41.46875 C 40.53125 -41.46875 39.859375 -41.644531 39.234375 -42 C 38.609375 -42.363281 38.128906 -42.859375 37.796875 -43.484375 C 36.503906 -45.648438 34.882812 -47.296875 32.9375 -48.421875 C 31 -49.546875 28.539062 -50.109375 25.5625 -50.109375 C 21.914062 -50.109375 18.960938 -49.398438 16.703125 -47.984375 C 14.441406 -46.566406 13.3125 -44.515625 13.3125 -41.828125 C 13.3125 -39.335938 14.320312 -37.25 16.34375 -35.5625 C 18.363281 -33.882812 21.960938 -32.78125 27.140625 -32.25 C 32.898438 -31.675781 37.363281 -29.9375 40.53125 -27.03125 C 43.695312 -24.132812 45.28125 -20.304688 45.28125 -15.546875 C 45.28125 -12.097656 44.34375 -9.132812 42.46875 -6.65625 C 40.601562 -4.1875 38.125 -2.335938 35.03125 -1.109375 C 31.9375 0.109375 28.613281 0.71875 25.0625 0.71875 Z M 25.0625 0.71875"/></symbol><symbol id="b" overflow="visible"><path d="M 24.34375 -39.671875 C 28.03125 -39.671875 31.375 -38.796875 34.375 -37.046875 C 37.375 -35.296875 39.75 -32.894531 41.5 -29.84375 C 43.257812 -26.789062 44.140625 -23.394531 44.140625 -19.65625 L 44.140625 -3.59375 C 44.140625 -2.539062 43.789062 -1.664062 43.09375 -0.96875 C 42.394531 -0.269531 41.519531 0.078125 40.46875 0.078125 C 39.40625 0.078125 38.523438 -0.269531 37.828125 -0.96875 C 37.140625 -1.664062 36.796875 -2.539062 36.796875 -3.59375 L 36.796875 -6.265625 C 35.109375 -4.203125 33.066406 -2.59375 30.671875 -1.4375 C 28.273438 -0.289062 25.679688 0.28125 22.890625 0.28125 C 19.441406 0.28125 16.3125 -0.578125 13.5 -2.296875 C 10.6875 -4.023438 8.476562 -6.414062 6.875 -9.46875 C 5.269531 -12.519531 4.46875 -15.914062 4.46875 -19.65625 C 4.46875 -23.394531 5.328125 -26.789062 7.046875 -29.84375 C 8.773438 -32.894531 11.164062 -35.296875 14.21875 -37.046875 C 17.269531 -38.796875 20.644531 -39.671875 24.34375 -39.671875 Z M 24.34375 -6.1875 C 26.738281 -6.1875 28.90625 -6.773438 30.84375 -7.953125 C 32.789062 -9.128906 34.316406 -10.738281 35.421875 -12.78125 C 36.523438 -14.820312 37.078125 -17.113281 37.078125 -19.65625 C 37.078125 -22.195312 36.523438 -24.5 35.421875 -26.5625 C 34.316406 -28.625 32.789062 -30.242188 30.84375 -31.421875 C 28.90625 -32.597656 26.738281 -33.1875 24.34375 -33.1875 C 21.9375 -33.1875 19.757812 -32.597656 17.8125 -31.421875 C 15.875 -30.242188 14.335938 -28.625 13.203125 -26.5625 C 12.078125 -24.5 11.515625 -22.195312 11.515625 -19.65625 C 11.515625 -17.113281 12.078125 -14.820312 13.203125 -12.78125 C 14.335938 -10.738281 15.875 -9.128906 17.8125 -7.953125 C 19.757812 -6.773438 21.9375 -6.1875 24.34375 -6.1875 Z M 24.34375 -6.1875"/></symbol><symbol id="c" overflow="visible"><path d="M 25.78125 -39.8125 C 28.320312 -39.8125 30.3125 -39.425781 31.75 -38.65625 C 33.1875 -37.894531 33.90625 -36.9375 33.90625 -35.78125 C 33.90625 -35.445312 33.882812 -35.207031 33.84375 -35.0625 C 33.40625 -33.53125 32.441406 -32.765625 30.953125 -32.765625 C 30.710938 -32.765625 30.351562 -32.8125 29.875 -32.90625 C 27.957031 -33.238281 26.398438 -33.40625 25.203125 -33.40625 C 21.742188 -33.40625 18.957031 -32.613281 16.84375 -31.03125 C 14.738281 -29.445312 13.6875 -27.3125 13.6875 -24.625 L 13.6875 -3.59375 C 13.6875 -2.445312 13.382812 -1.5625 12.78125 -0.9375 C 12.175781 -0.3125 11.273438 0 10.078125 0 C 8.929688 0 8.046875 -0.296875 7.421875 -0.890625 C 6.796875 -1.492188 6.484375 -2.394531 6.484375 -3.59375 L 6.484375 -35.78125 C 6.484375 -36.9375 6.796875 -37.828125 7.421875 -38.453125 C 8.046875 -39.078125 8.929688 -39.390625 10.078125 -39.390625 C 12.484375 -39.390625 13.6875 -38.1875 13.6875 -35.78125 L 13.6875 -34.421875 C 15.125 -36.097656 16.894531 -37.414062 19 -38.375 C 21.113281 -39.332031 23.375 -39.8125 25.78125 -39.8125 Z M 25.78125 -39.8125"/></symbol></defs><g fill="#8f1cdd"><g><use x="72.336" xlink:href="#a" y="210.75"/></g><g><use x="121.872" xlink:href="#b" y="210.75"/></g><g><use x="170.472" xlink:href="#b" y="210.75"/></g><g><use x="219.072" xlink:href="#c" y="210.75"/></g><g><use x="254.064" xlink:href="#b" y="210.75"/></g></g></svg>